<?xml version="1.0" encoding="UTF-8"?>
<svg width="292px" height="354px" viewBox="0 0 292 354" version="1.1" xmlns="http://www.w3.org/2000/svg" xmlns:xlink="http://www.w3.org/1999/xlink">
    <!-- Generator: Sketch 3.8.1 (29687) - http://www.bohemiancoding.com/sketch -->
    <title>logo</title>
    <desc>Created with Sketch.</desc>
    <defs></defs>
    <g id="Page-1" stroke="none" stroke-width="1" fill="none" fill-rule="evenodd">
        <g id="logo">
            <circle id="dark-background" fill="#37474F" cx="146" cy="146" r="146"></circle>
            <circle id="white-background" fill="#FFFFFF" cx="146" cy="146" r="66"></circle>
            <circle id="lens" fill="#6AB344" cx="146" cy="146" r="46"></circle>
            <circle id="pupil" fill="#37474F" cx="147" cy="146" r="24"></circle>
            <ellipse id="reflection" fill="#FFFFFF" cx="159" cy="134" rx="12" ry="12"></ellipse>
            <circle id="circle" stroke="#FFFFFF" stroke-width="10" stroke-dasharray="1,8" cx="146" cy="146" r="96"></circle>
            <path d="M62.3146664,353.48 C61.1306605,353.48 60.0346714,353.280002 59.0266664,352.88 C58.0186613,352.479998 57.1386701,351.928004 56.3866664,351.224 C55.6346626,350.519996 55.0506685,349.696005 54.6346664,348.752 C54.2186643,347.807995 54.0106664,346.792005 54.0106664,345.704 C54.0106664,344.615995 54.2666638,343.608005 54.7786664,342.68 C55.2906689,341.751995 56.0106617,340.952003 56.9386664,340.28 C57.866671,339.607997 58.97066,339.088002 60.2506664,338.72 C61.5306728,338.351998 62.9386587,338.168 64.4746664,338.168 C65.7546728,338.168 67.0506598,338.279999 68.3626664,338.504 C69.6746729,338.728001 70.8426613,339.047998 71.8666664,339.464 L71.8666664,337.208 C71.8666664,334.999989 71.2426726,333.248006 69.9946664,331.952 C68.7466601,330.655994 67.0186774,330.008 64.8106664,330.008 C63.53066,330.008 62.2186731,330.263997 60.8746664,330.776 C59.5306597,331.288003 58.1706733,332.023995 56.7946664,332.984 L55.6426664,330.824 C58.8746825,328.647989 62.0106512,327.56 65.0506664,327.56 C68.1866821,327.56 70.6506574,328.439991 72.4426664,330.2 C74.2346753,331.960009 75.1306664,334.391984 75.1306664,337.496 L75.1306664,348.776 C75.1306664,349.672004 75.5306624,350.12 76.3306664,350.12 L76.3306664,353 C75.7866637,353.096 75.3706678,353.144 75.0826664,353.144 C74.2506622,353.144 73.6026687,352.936002 73.1386664,352.52 C72.6746641,352.103998 72.4266665,351.528004 72.3946664,350.792 L72.2986664,348.824 C71.1466606,350.328008 69.6986751,351.479996 67.9546664,352.28 C66.2106577,353.080004 64.3306765,353.48 62.3146664,353.48 L62.3146664,353.48 Z M63.0826664,350.984 C64.7786749,350.984 66.3386593,350.664003 67.7626664,350.024 C69.1866735,349.383997 70.2666627,348.536005 71.0026664,347.48 C71.2906678,347.191999 71.5066657,346.880002 71.6506664,346.544 C71.7946671,346.207998 71.8666664,345.896001 71.8666664,345.608 L71.8666664,341.528 C70.7786609,341.111998 69.6506722,340.792001 68.4826664,340.568 C67.3146605,340.343999 66.1226725,340.232 64.9066664,340.232 C62.6026549,340.232 60.7306736,340.711995 59.2906664,341.672 C57.8506592,342.632005 57.1306664,343.895992 57.1306664,345.464 C57.1306664,346.232004 57.2826649,346.951997 57.5866664,347.624 C57.8906679,348.296003 58.3066637,348.879998 58.8346664,349.376 C59.362669,349.872002 59.9946627,350.263999 60.7306664,350.552 C61.4666701,350.840001 62.2506622,350.984 63.0826664,350.984 L63.0826664,350.984 Z M105.877333,353 L102.613333,353 L102.613333,339.032 C102.613333,336.055985 102.173338,333.896007 101.293333,332.552 C100.413329,331.207993 99.0613423,330.536 97.2373331,330.536 C96.2773283,330.536 95.3173379,330.711998 94.3573331,331.064 C93.3973283,331.416002 92.5093372,331.911997 91.6933331,332.552 C90.8773291,333.192003 90.1493363,333.951996 89.5093331,334.832 C88.8693299,335.712004 88.4053346,336.663995 88.1173331,337.688 L88.1173331,353 L84.8533331,353 L84.8533331,327.992 L87.8293331,327.992 L87.8293331,333.656 C88.8533383,331.831991 90.3173236,330.360006 92.2213331,329.24 C94.1253427,328.119994 96.1973219,327.56 98.4373331,327.56 C99.81334,327.56 100.981328,327.815997 101.941333,328.328 C102.901338,328.840003 103.66933,329.559995 104.245333,330.488 C104.821336,331.416005 105.237332,332.551993 105.493333,333.896 C105.749334,335.240007 105.877333,336.727992 105.877333,338.36 L105.877333,353 Z M125.776,353.48 C124.047991,353.48 122.448007,353.120004 120.976,352.4 C119.503993,351.679996 118.240005,350.728006 117.184,349.544 C116.127995,348.359994 115.304003,346.992008 114.712,345.44 C114.119997,343.887992 113.824,342.264008 113.824,340.568 C113.824,338.807991 114.111997,337.136008 114.688,335.552 C115.264003,333.967992 116.055995,332.584006 117.064,331.4 C118.072005,330.215994 119.271993,329.280003 120.664,328.592 C122.056007,327.903997 123.583992,327.56 125.248,327.56 C127.36001,327.56 129.231992,328.111994 130.864,329.216 C132.496008,330.320006 133.775995,331.655992 134.704,333.224 L134.704,317.96 L137.968,317.96 L137.968,348.776 C137.968,349.672004 138.351996,350.12 139.12,350.12 L139.12,353 C138.639997,353.096 138.256001,353.144 137.968,353.144 C137.199996,353.144 136.528003,352.896002 135.952,352.4 C135.375997,351.903998 135.088,351.304004 135.088,350.6 L135.088,348.152 C134.095995,349.784008 132.752008,351.079995 131.056,352.04 C129.359991,353.000005 127.600009,353.48 125.776,353.48 L125.776,353.48 Z M126.496,350.6 C127.296004,350.6 128.151995,350.440002 129.064,350.12 C129.976004,349.799998 130.831996,349.360003 131.632,348.8 C132.432004,348.239997 133.111997,347.584004 133.672,346.832 C134.232003,346.079996 134.575999,345.272004 134.704,344.408 L134.704,336.68 C134.383998,335.815996 133.920003,335.008004 133.312,334.256 C132.703997,333.503996 132.008004,332.840003 131.224,332.264 C130.439996,331.687997 129.600004,331.240002 128.704,330.92 C127.807995,330.599998 126.928004,330.44 126.064,330.44 C124.719993,330.44 123.504005,330.727997 122.416,331.304 C121.327994,331.880003 120.392004,332.639995 119.608,333.584 C118.823996,334.528005 118.224002,335.607994 117.808,336.824 C117.391998,338.040006 117.184,339.287994 117.184,340.568 C117.184,341.912007 117.423997,343.191994 117.904,344.408 C118.384002,345.624006 119.039996,346.687995 119.872,347.6 C120.704004,348.512005 121.687994,349.239997 122.824,349.784 C123.960006,350.328003 125.183993,350.6 126.496,350.6 L126.496,350.6 Z M160.506667,330.872 C158.298656,330.936 156.378675,331.543994 154.746667,332.696 C153.114658,333.848006 151.96267,335.43199 151.290667,337.448 L151.290667,353 L148.026667,353 L148.026667,327.992 L151.098667,327.992 L151.098667,333.992 C152.026671,332.07199 153.274659,330.568005 154.842667,329.48 C156.410674,328.391995 158.090658,327.848 159.882667,327.848 C160.138668,327.848 160.346666,327.864 160.506667,327.896 L160.506667,330.872 Z M176.949333,353.48 C175.125324,353.48 173.461341,353.136003 171.957333,352.448 C170.453326,351.759997 169.149339,350.824006 168.045333,349.64 C166.941328,348.455994 166.085336,347.080008 165.477333,345.512 C164.86933,343.943992 164.565333,342.296009 164.565333,340.568 C164.565333,338.807991 164.87733,337.144008 165.501333,335.576 C166.125336,334.007992 166.989328,332.632006 168.093333,331.448 C169.197339,330.263994 170.501326,329.320004 172.005333,328.616 C173.509341,327.911996 175.157324,327.56 176.949333,327.56 C178.741342,327.56 180.397326,327.911996 181.917333,328.616 C183.437341,329.320004 184.749328,330.263994 185.853333,331.448 C186.957339,332.632006 187.82133,334.007992 188.445333,335.576 C189.069336,337.144008 189.381333,338.807991 189.381333,340.568 C189.381333,342.296009 189.077336,343.943992 188.469333,345.512 C187.86133,347.080008 187.005339,348.455994 185.901333,349.64 C184.797328,350.824006 183.485341,351.759997 181.965333,352.448 C180.445326,353.136003 178.773342,353.48 176.949333,353.48 L176.949333,353.48 Z M167.877333,340.616 C167.877333,342.024007 168.117331,343.327994 168.597333,344.528 C169.077336,345.728006 169.725329,346.783995 170.541333,347.696 C171.357337,348.608005 172.317328,349.319997 173.421333,349.832 C174.525339,350.344003 175.701327,350.6 176.949333,350.6 C178.19734,350.6 179.373328,350.336003 180.477333,349.808 C181.581339,349.279997 182.549329,348.560005 183.381333,347.648 C184.213338,346.735995 184.869331,345.672006 185.349333,344.456 C185.829336,343.239994 186.069333,341.928007 186.069333,340.52 C186.069333,339.143993 185.829336,337.840006 185.349333,336.608 C184.869331,335.375994 184.213338,334.304005 183.381333,333.392 C182.549329,332.479995 181.581339,331.760003 180.477333,331.232 C179.373328,330.703997 178.19734,330.44 176.949333,330.44 C175.701327,330.44 174.533339,330.703997 173.445333,331.232 C172.357328,331.760003 171.397338,332.487995 170.565333,333.416 C169.733329,334.344005 169.077336,335.423994 168.597333,336.656 C168.117331,337.888006 167.877333,339.207993 167.877333,340.616 L167.877333,340.616 Z M197.52,353 L197.52,327.992 L200.784,327.992 L200.784,353 L197.52,353 Z M197.52,322.76 L197.52,317.96 L200.784,317.96 L200.784,322.76 L197.52,322.76 Z M220.922667,353.48 C219.194658,353.48 217.594674,353.120004 216.122667,352.4 C214.65066,351.679996 213.386672,350.728006 212.330667,349.544 C211.274662,348.359994 210.45067,346.992008 209.858667,345.44 C209.266664,343.887992 208.970667,342.264008 208.970667,340.568 C208.970667,338.807991 209.258664,337.136008 209.834667,335.552 C210.41067,333.967992 211.202662,332.584006 212.210667,331.4 C213.218672,330.215994 214.41866,329.280003 215.810667,328.592 C217.202674,327.903997 218.730659,327.56 220.394667,327.56 C222.506677,327.56 224.378659,328.111994 226.010667,329.216 C227.642675,330.320006 228.922662,331.655992 229.850667,333.224 L229.850667,317.96 L233.114667,317.96 L233.114667,348.776 C233.114667,349.672004 233.498663,350.12 234.266667,350.12 L234.266667,353 C233.786664,353.096 233.402668,353.144 233.114667,353.144 C232.346663,353.144 231.67467,352.896002 231.098667,352.4 C230.522664,351.903998 230.234667,351.304004 230.234667,350.6 L230.234667,348.152 C229.242662,349.784008 227.898675,351.079995 226.202667,352.04 C224.506658,353.000005 222.746676,353.48 220.922667,353.48 L220.922667,353.48 Z M221.642667,350.6 C222.442671,350.6 223.298662,350.440002 224.210667,350.12 C225.122671,349.799998 225.978663,349.360003 226.778667,348.8 C227.578671,348.239997 228.258664,347.584004 228.818667,346.832 C229.37867,346.079996 229.722666,345.272004 229.850667,344.408 L229.850667,336.68 C229.530665,335.815996 229.06667,335.008004 228.458667,334.256 C227.850664,333.503996 227.154671,332.840003 226.370667,332.264 C225.586663,331.687997 224.746671,331.240002 223.850667,330.92 C222.954662,330.599998 222.074671,330.44 221.210667,330.44 C219.86666,330.44 218.650672,330.727997 217.562667,331.304 C216.474661,331.880003 215.538671,332.639995 214.754667,333.584 C213.970663,334.528005 213.370669,335.607994 212.954667,336.824 C212.538665,338.040006 212.330667,339.287994 212.330667,340.568 C212.330667,341.912007 212.570664,343.191994 213.050667,344.408 C213.530669,345.624006 214.186663,346.687995 215.018667,347.6 C215.850671,348.512005 216.834661,349.239997 217.970667,349.784 C219.106673,350.328003 220.33066,350.6 221.642667,350.6 L221.642667,350.6 Z" id="android" fill="#6AB344"></path>
        </g>
    </g>
</svg>