<?xml version="1.0" encoding="UTF-8"?>
<svg width="292px" height="364px" viewBox="0 0 292 364" version="1.1" xmlns="http://www.w3.org/2000/svg" xmlns:xlink="http://www.w3.org/1999/xlink">
    <!-- Generator: Sketch 3.8.1 (29687) - http://www.bohemiancoding.com/sketch -->
    <title>logo</title>
    <desc>Created with Sketch.</desc>
    <defs></defs>
    <g id="Page-1" stroke="none" stroke-width="1" fill="none" fill-rule="evenodd">
        <g id="logo">
            <circle id="dark-background" fill="#37474F" cx="146" cy="146" r="146"></circle>
            <circle id="white-background" fill="#FFFFFF" cx="146" cy="146" r="66"></circle>
            <path d="M146,192 C171.405098,192 192,171.405098 192,146 C192,120.594902 171.405098,100 146,100 C120.594902,100 100,120.594902 100,146 C100,171.405098 120.594902,192 146,192 Z" id="lens" fill="#009688"></path>
            <circle id="pupil" fill="#37474F" cx="147" cy="146" r="24"></circle>
            <ellipse id="reflection" fill="#FFFFFF" cx="159" cy="134" rx="12" ry="12"></ellipse>
            <circle id="circle" stroke="#FFFFFF" stroke-width="10" stroke-dasharray="1,8" cx="146" cy="146" r="96"></circle>
            <path d="M76.1759998,353.48 C74.3519906,353.48 72.6800074,353.136003 71.1599998,352.448 C69.6399922,351.759997 68.3200054,350.816006 67.1999998,349.616 C66.0799942,348.415994 65.2080029,347.032008 64.5839998,345.464 C63.9599966,343.895992 63.6479998,342.216009 63.6479998,340.424 C63.6479998,338.663991 63.9599966,337.008008 64.5839998,335.456 C65.2080029,333.903992 66.0719942,332.544006 67.1759998,331.376 C68.2800053,330.207994 69.5999921,329.280003 71.1359998,328.592 C72.6720074,327.903997 74.3359908,327.56 76.1279998,327.56 C77.9520089,327.56 79.6239922,327.903997 81.1439998,328.592 C82.6640074,329.280003 83.9679943,330.215994 85.0559998,331.4 C86.1440052,332.584006 86.9919967,333.943992 87.5999998,335.48 C88.2080028,337.016008 88.5119998,338.647991 88.5119998,340.376 L88.5119998,341.144 C88.5119998,341.400001 88.4959999,341.576 88.4639998,341.672 L67.0559998,341.672 C67.1520002,343.016007 67.4639971,344.255994 67.9919998,345.392 C68.5200024,346.528006 69.1999956,347.511996 70.0319998,348.344 C70.8640039,349.176004 71.8159944,349.823998 72.8879998,350.288 C73.9600051,350.752002 75.1039937,350.984 76.3199998,350.984 C77.1200038,350.984 77.9199958,350.872001 78.7199998,350.648 C79.5200038,350.423999 80.2559964,350.120002 80.9279998,349.736 C81.6000031,349.351998 82.207997,348.880003 82.7519998,348.32 C83.2960025,347.759997 83.7119983,347.144003 83.9999998,346.472 L86.8319998,347.24 C86.4479978,348.168005 85.9040033,349.007996 85.1999998,349.76 C84.4959962,350.512004 83.6800044,351.167997 82.7519998,351.728 C81.8239951,352.288003 80.8000054,352.719998 79.6799998,353.024 C78.5599942,353.328002 77.3920058,353.48 76.1759998,353.48 L76.1759998,353.48 Z M85.3919998,339.176 C85.2959993,337.831993 84.9840024,336.608006 84.4559998,335.504 C83.9279971,334.399994 83.2560038,333.448004 82.4399998,332.648 C81.6239957,331.847996 80.6800051,331.224002 79.6079998,330.776 C78.5359944,330.327998 77.3920058,330.104 76.1759998,330.104 C74.9599937,330.104 73.8080052,330.327998 72.7199998,330.776 C71.6319943,331.224002 70.6800038,331.847996 69.8639998,332.648 C69.0479957,333.448004 68.3920022,334.407994 67.8959998,335.528 C67.3999973,336.648006 67.1040002,337.863993 67.0079998,339.176 L85.3919998,339.176 Z M117.242667,353 L113.978667,353 L113.978667,339.032 C113.978667,336.055985 113.538671,333.896007 112.658667,332.552 C111.778662,331.207993 110.426676,330.536 108.602667,330.536 C107.642662,330.536 106.682671,330.711998 105.722667,331.064 C104.762662,331.416002 103.874671,331.911997 103.058667,332.552 C102.242662,333.192003 101.51467,333.951996 100.874667,334.832 C100.234663,335.712004 99.7706679,336.663995 99.4826665,337.688 L99.4826665,353 L96.2186665,353 L96.2186665,327.992 L99.1946665,327.992 L99.1946665,333.656 C100.218672,331.831991 101.682657,330.360006 103.586667,329.24 C105.490676,328.119994 107.562655,327.56 109.802667,327.56 C111.178673,327.56 112.346662,327.815997 113.306667,328.328 C114.266671,328.840003 115.034664,329.559995 115.610667,330.488 C116.186669,331.416005 116.602665,332.551993 116.858667,333.896 C117.114668,335.240007 117.242667,336.727992 117.242667,338.36 L117.242667,353 Z M136.901333,353.336 C135.173325,353.336 133.59734,352.976004 132.173333,352.256 C130.749326,351.535996 129.517338,350.584006 128.477333,349.4 C127.437328,348.215994 126.629336,346.856008 126.053333,345.32 C125.47733,343.783992 125.189333,342.200008 125.189333,340.568 C125.189333,338.839991 125.46933,337.184008 126.029333,335.6 C126.589336,334.015992 127.381328,332.632006 128.405333,331.448 C129.429338,330.263994 130.653326,329.320004 132.077333,328.616 C133.50134,327.911996 135.077325,327.56 136.805333,327.56 C138.949344,327.56 140.805325,328.095995 142.373333,329.168 C143.941341,330.240005 145.285328,331.591992 146.405333,333.224 L146.405333,327.992 L149.333333,327.992 L149.333333,353.096 C149.333333,354.824009 149.005337,356.351993 148.349333,357.68 C147.69333,359.008007 146.813339,360.119996 145.709333,361.016 C144.605328,361.912004 143.309341,362.583998 141.821333,363.032 C140.333326,363.480002 138.757342,363.704 137.093333,363.704 C134.213319,363.704 131.893342,363.192005 130.133333,362.168 C128.373324,361.143995 126.949339,359.768009 125.861333,358.04 L127.877333,356.456 C128.869338,358.056008 130.181325,359.231996 131.813333,359.984 C133.445341,360.736004 135.205324,361.112 137.093333,361.112 C138.309339,361.112 139.461328,360.944002 140.549333,360.608 C141.637339,360.271998 142.589329,359.776003 143.405333,359.12 C144.221337,358.463997 144.869331,357.632005 145.349333,356.624 C145.829336,355.615995 146.069333,354.440007 146.069333,353.096 L146.069333,348.152 C145.109328,349.752008 143.797342,351.015995 142.133333,351.944 C140.469325,352.872005 138.725342,353.336 136.901333,353.336 L136.901333,353.336 Z M137.813333,350.6 C138.773338,350.6 139.717329,350.424002 140.645333,350.072 C141.573338,349.719998 142.413329,349.248003 143.165333,348.656 C143.917337,348.063997 144.549331,347.400004 145.061333,346.664 C145.573336,345.927996 145.909332,345.176004 146.069333,344.408 L146.069333,336.68 C145.717331,335.783996 145.237336,334.952004 144.629333,334.184 C144.02133,333.415996 143.333337,332.760003 142.565333,332.216 C141.797329,331.671997 140.973338,331.240002 140.093333,330.92 C139.213329,330.599998 138.325338,330.44 137.429333,330.44 C136.021326,330.44 134.765339,330.735997 133.661333,331.328 C132.557328,331.920003 131.621337,332.695995 130.853333,333.656 C130.085329,334.616005 129.501335,335.703994 129.101333,336.92 C128.701331,338.136006 128.501333,339.367994 128.501333,340.616 C128.501333,341.960007 128.741331,343.239994 129.221333,344.456 C129.701336,345.672006 130.365329,346.735995 131.213333,347.648 C132.061337,348.560005 133.045328,349.279997 134.165333,349.808 C135.285339,350.336003 136.501327,350.6 137.813333,350.6 L137.813333,350.6 Z M159.2,353 L159.2,327.992 L162.464,327.992 L162.464,353 L159.2,353 Z M159.2,322.76 L159.2,317.96 L162.464,317.96 L162.464,322.76 L159.2,322.76 Z M193.354667,353 L190.090667,353 L190.090667,339.032 C190.090667,336.055985 189.650671,333.896007 188.770667,332.552 C187.890662,331.207993 186.538676,330.536 184.714667,330.536 C183.754662,330.536 182.794672,330.711998 181.834667,331.064 C180.874662,331.416002 179.986671,331.911997 179.170667,332.552 C178.354663,333.192003 177.62667,333.951996 176.986667,334.832 C176.346664,335.712004 175.882668,336.663995 175.594667,337.688 L175.594667,353 L172.330667,353 L172.330667,327.992 L175.306667,327.992 L175.306667,333.656 C176.330672,331.831991 177.794657,330.360006 179.698667,329.24 C181.602676,328.119994 183.674656,327.56 185.914667,327.56 C187.290674,327.56 188.458662,327.815997 189.418667,328.328 C190.378672,328.840003 191.146664,329.559995 191.722667,330.488 C192.29867,331.416005 192.714665,332.551993 192.970667,333.896 C193.226668,335.240007 193.354667,336.727992 193.354667,338.36 L193.354667,353 Z M213.781333,353.48 C211.957324,353.48 210.285341,353.136003 208.765333,352.448 C207.245326,351.759997 205.925339,350.816006 204.805333,349.616 C203.685328,348.415994 202.813337,347.032008 202.189333,345.464 C201.56533,343.895992 201.253333,342.216009 201.253333,340.424 C201.253333,338.663991 201.56533,337.008008 202.189333,335.456 C202.813337,333.903992 203.677328,332.544006 204.781333,331.376 C205.885339,330.207994 207.205326,329.280003 208.741333,328.592 C210.277341,327.903997 211.941325,327.56 213.733333,327.56 C215.557343,327.56 217.229326,327.903997 218.749333,328.592 C220.269341,329.280003 221.573328,330.215994 222.661333,331.4 C223.749339,332.584006 224.59733,333.943992 225.205333,335.48 C225.813337,337.016008 226.117333,338.647991 226.117333,340.376 L226.117333,341.144 C226.117333,341.400001 226.101334,341.576 226.069333,341.672 L204.661333,341.672 C204.757334,343.016007 205.069331,344.255994 205.597333,345.392 C206.125336,346.528006 206.805329,347.511996 207.637333,348.344 C208.469338,349.176004 209.421328,349.823998 210.493333,350.288 C211.565339,350.752002 212.709327,350.984 213.925333,350.984 C214.725337,350.984 215.525329,350.872001 216.325333,350.648 C217.125337,350.423999 217.86133,350.120002 218.533333,349.736 C219.205337,349.351998 219.813331,348.880003 220.357333,348.32 C220.901336,347.759997 221.317332,347.144003 221.605333,346.472 L224.437333,347.24 C224.053332,348.168005 223.509337,349.007996 222.805333,349.76 C222.10133,350.512004 221.285338,351.167997 220.357333,351.728 C219.429329,352.288003 218.405339,352.719998 217.285333,353.024 C216.165328,353.328002 214.99734,353.48 213.781333,353.48 L213.781333,353.48 Z M222.997333,339.176 C222.901333,337.831993 222.589336,336.608006 222.061333,335.504 C221.533331,334.399994 220.861338,333.448004 220.045333,332.648 C219.229329,331.847996 218.285339,331.224002 217.213333,330.776 C216.141328,330.327998 214.99734,330.104 213.781333,330.104 C212.565327,330.104 211.413339,330.327998 210.325333,330.776 C209.237328,331.224002 208.285338,331.847996 207.469333,332.648 C206.653329,333.448004 205.997336,334.407994 205.501333,335.528 C205.005331,336.648006 204.709334,337.863993 204.613333,339.176 L222.997333,339.176 Z" id="engine" fill="#009688"></path>
        </g>
    </g>
</svg>