<?xml version="1.0" encoding="UTF-8"?>
<svg width="292px" height="364px" viewBox="0 0 292 364" version="1.1" xmlns="http://www.w3.org/2000/svg" xmlns:xlink="http://www.w3.org/1999/xlink">
    <!-- Generator: Sketch 3.8.1 (29687) - http://www.bohemiancoding.com/sketch -->
    <title>logo</title>
    <desc>Created with Sketch.</desc>
    <defs></defs>
    <g id="Page-1" stroke="none" stroke-width="1" fill="none" fill-rule="evenodd">
        <g id="logo">
            <circle id="dark-background" fill="#37474F" cx="146" cy="146" r="146"></circle>
            <circle id="white-background" fill="#FFFFFF" cx="146" cy="146" r="66"></circle>
            <path d="M146,192 C171.405098,192 192,171.405098 192,146 C192,120.594902 171.405098,100 146,100 C120.594902,100 100,120.594902 100,146 C100,171.405098 120.594902,192 146,192 Z" id="lens" fill="#7986CB"></path>
            <circle id="pupil" fill="#37474F" cx="147" cy="146" r="24"></circle>
            <ellipse id="reflection" fill="#FFFFFF" cx="159" cy="134" rx="12" ry="12"></ellipse>
            <circle id="circle" stroke="#FFFFFF" stroke-width="10" stroke-dasharray="1,8" cx="146" cy="146" r="96"></circle>
            <path d="M118.768,353.48 C117.583994,353.48 116.488005,353.280002 115.48,352.88 C114.471995,352.479998 113.592004,351.928004 112.84,351.224 C112.087996,350.519996 111.504002,349.696005 111.088,348.752 C110.671998,347.807995 110.464,346.792005 110.464,345.704 C110.464,344.615995 110.719997,343.608005 111.232,342.68 C111.744002,341.751995 112.463995,340.952003 113.392,340.28 C114.320005,339.607997 115.423993,339.088002 116.704,338.72 C117.984006,338.351998 119.391992,338.168 120.928,338.168 C122.208006,338.168 123.503993,338.279999 124.816,338.504 C126.128006,338.728001 127.295995,339.047998 128.32,339.464 L128.32,337.208 C128.32,334.999989 127.696006,333.248006 126.448,331.952 C125.199994,330.655994 123.472011,330.008 121.264,330.008 C119.983993,330.008 118.672007,330.263997 117.328,330.776 C115.983993,331.288003 114.624007,332.023995 113.248,332.984 L112.096,330.824 C115.328016,328.647989 118.463985,327.56 121.504,327.56 C124.640016,327.56 127.103991,328.439991 128.896,330.2 C130.688009,331.960009 131.584,334.391984 131.584,337.496 L131.584,348.776 C131.584,349.672004 131.983996,350.12 132.784,350.12 L132.784,353 C132.239997,353.096 131.824001,353.144 131.536,353.144 C130.703996,353.144 130.056002,352.936002 129.592,352.52 C129.127998,352.103998 128.88,351.528004 128.848,350.792 L128.752,348.824 C127.599994,350.328008 126.152009,351.479996 124.408,352.28 C122.663991,353.080004 120.78401,353.48 118.768,353.48 L118.768,353.48 Z M119.536,350.984 C121.232008,350.984 122.791993,350.664003 124.216,350.024 C125.640007,349.383997 126.719996,348.536005 127.456,347.48 C127.744001,347.191999 127.959999,346.880002 128.104,346.544 C128.248001,346.207998 128.32,345.896001 128.32,345.608 L128.32,341.528 C127.231994,341.111998 126.104006,340.792001 124.936,340.568 C123.767994,340.343999 122.576006,340.232 121.36,340.232 C119.055988,340.232 117.184007,340.711995 115.744,341.672 C114.303993,342.632005 113.584,343.895992 113.584,345.464 C113.584,346.232004 113.735998,346.951997 114.04,347.624 C114.344001,348.296003 114.759997,348.879998 115.288,349.376 C115.816003,349.872002 116.447996,350.263999 117.184,350.552 C117.920004,350.840001 118.703996,350.984 119.536,350.984 L119.536,350.984 Z M154.074667,353.48 C151.962656,353.48 150.098675,352.944005 148.482667,351.872 C146.866659,350.799995 145.562672,349.448008 144.570667,347.816 L144.570667,363.224 L141.306667,363.224 L141.306667,327.992 L144.234667,327.992 L144.234667,332.84 C145.258672,331.271992 146.586658,330.000005 148.218667,329.024 C149.850675,328.047995 151.626657,327.56 153.546667,327.56 C155.274675,327.56 156.858659,327.919996 158.298667,328.64 C159.738674,329.360004 160.986661,330.319994 162.042667,331.52 C163.098672,332.720006 163.922664,334.103992 164.514667,335.672 C165.10667,337.240008 165.402667,338.855992 165.402667,340.52 C165.402667,342.280009 165.130669,343.943992 164.586667,345.512 C164.042664,347.080008 163.266672,348.455994 162.258667,349.64 C161.250662,350.824006 160.050674,351.759997 158.658667,352.448 C157.26666,353.136003 155.738675,353.48 154.074667,353.48 L154.074667,353.48 Z M153.162667,350.6 C154.506673,350.6 155.730661,350.312003 156.834667,349.736 C157.938672,349.159997 158.882663,348.400005 159.666667,347.456 C160.450671,346.511995 161.050665,345.440006 161.466667,344.24 C161.882669,343.039994 162.090667,341.800006 162.090667,340.52 C162.090667,339.175993 161.850669,337.896006 161.370667,336.68 C160.890664,335.463994 160.234671,334.392005 159.402667,333.464 C158.570662,332.535995 157.586672,331.800003 156.450667,331.256 C155.314661,330.711997 154.090673,330.44 152.778667,330.44 C151.946662,330.44 151.074671,330.607998 150.162667,330.944 C149.250662,331.280002 148.402671,331.727997 147.618667,332.288 C146.834663,332.848003 146.162669,333.503996 145.602667,334.256 C145.042664,335.008004 144.698667,335.799996 144.570667,336.632 L144.570667,344.312 C144.954669,345.208004 145.442664,346.039996 146.034667,346.808 C146.62667,347.576004 147.298663,348.239997 148.050667,348.8 C148.80267,349.360003 149.610662,349.799998 150.474667,350.12 C151.338671,350.440002 152.234662,350.6 153.162667,350.6 L153.162667,350.6 Z M173.589333,353 L173.589333,327.992 L176.853333,327.992 L176.853333,353 L173.589333,353 Z M173.589333,322.76 L173.589333,317.96 L176.853333,317.96 L176.853333,322.76 L173.589333,322.76 Z" id="api" fill="#7986CB"></path>
        </g>
    </g>
</svg>