<?xml version="1.0" encoding="UTF-8"?>
<svg width="292px" height="354px" viewBox="0 0 292 354" version="1.1" xmlns="http://www.w3.org/2000/svg" xmlns:xlink="http://www.w3.org/1999/xlink">
    <!-- Generator: Sketch 3.8.1 (29687) - http://www.bohemiancoding.com/sketch -->
    <title>logo</title>
    <desc>Created with Sketch.</desc>
    <defs>
        <path d="M146,192 C171.405098,192 192,171.405098 192,146 C192,120.594902 171.405098,100 146,100 C120.594902,100 100,120.594902 100,146 C100,171.405098 120.594902,192 146,192 Z" id="path-1"></path>
    </defs>
    <g id="Page-1" stroke="none" stroke-width="1" fill="none" fill-rule="evenodd">
        <g id="logo">
            <circle id="dark-background" fill="#37474F" cx="146" cy="146" r="146"></circle>
            <circle id="white-background" fill="#FFFFFF" cx="146" cy="146" r="66"></circle>
            <g id="lens">
                <use fill="#4CAF50" xlink:href="#path-1"></use>
                <use fill="" xlink:href="#path-1"></use>
            </g>
            <circle id="pupil" fill="#37474F" cx="147" cy="146" r="24"></circle>
            <ellipse id="reflection" fill="#FFFFFF" cx="159" cy="134" rx="12" ry="12"></ellipse>
            <circle id="circle" stroke="#FFFFFF" stroke-width="10" stroke-dasharray="1,8" cx="146" cy="146" r="96"></circle>
            <path d="M122.344,353.48 C121.159994,353.48 120.064005,353.280002 119.056,352.88 C118.047995,352.479998 117.168004,351.928004 116.416,351.224 C115.663996,350.519996 115.080002,349.696005 114.664,348.752 C114.247998,347.807995 114.04,346.792005 114.04,345.704 C114.04,344.615995 114.295997,343.608005 114.808,342.68 C115.320002,341.751995 116.039995,340.952003 116.968,340.28 C117.896005,339.607997 118.999993,339.088002 120.28,338.72 C121.560006,338.351998 122.967992,338.168 124.504,338.168 C125.784006,338.168 127.079993,338.279999 128.392,338.504 C129.704006,338.728001 130.871995,339.047998 131.896,339.464 L131.896,337.208 C131.896,334.999989 131.272006,333.248006 130.024,331.952 C128.775994,330.655994 127.048011,330.008 124.84,330.008 C123.559993,330.008 122.248007,330.263997 120.904,330.776 C119.559993,331.288003 118.200007,332.023995 116.824,332.984 L115.672,330.824 C118.904016,328.647989 122.039985,327.56 125.08,327.56 C128.216016,327.56 130.679991,328.439991 132.472,330.2 C134.264009,331.960009 135.16,334.391984 135.16,337.496 L135.16,348.776 C135.16,349.672004 135.559996,350.12 136.36,350.12 L136.36,353 C135.815997,353.096 135.400001,353.144 135.112,353.144 C134.279996,353.144 133.632002,352.936002 133.168,352.52 C132.703998,352.103998 132.456,351.528004 132.424,350.792 L132.328,348.824 C131.175994,350.328008 129.728009,351.479996 127.984,352.28 C126.239991,353.080004 124.36001,353.48 122.344,353.48 L122.344,353.48 Z M123.112,350.984 C124.808008,350.984 126.367993,350.664003 127.792,350.024 C129.216007,349.383997 130.295996,348.536005 131.032,347.48 C131.320001,347.191999 131.535999,346.880002 131.68,346.544 C131.824001,346.207998 131.896,345.896001 131.896,345.608 L131.896,341.528 C130.807994,341.111998 129.680006,340.792001 128.512,340.568 C127.343994,340.343999 126.152006,340.232 124.936,340.232 C122.631988,340.232 120.760007,340.711995 119.32,341.672 C117.879993,342.632005 117.16,343.895992 117.16,345.464 C117.16,346.232004 117.311998,346.951997 117.616,347.624 C117.920001,348.296003 118.335997,348.879998 118.864,349.376 C119.392003,349.872002 120.023996,350.263999 120.76,350.552 C121.496004,350.840001 122.279996,350.984 123.112,350.984 L123.112,350.984 Z M157.362667,330.872 C155.154656,330.936 153.234675,331.543994 151.602667,332.696 C149.970658,333.848006 148.81867,335.43199 148.146667,337.448 L148.146667,353 L144.882667,353 L144.882667,327.992 L147.954667,327.992 L147.954667,333.992 C148.882671,332.07199 150.130659,330.568005 151.698667,329.48 C153.266674,328.391995 154.946658,327.848 156.738667,327.848 C156.994668,327.848 157.202666,327.864 157.362667,327.896 L157.362667,330.872 Z M176.397333,351.8 C176.205332,351.896 175.925335,352.023999 175.557333,352.184 C175.189332,352.344001 174.765336,352.503999 174.285333,352.664 C173.805331,352.824001 173.261336,352.967999 172.653333,353.096 C172.04533,353.224001 171.405337,353.288 170.733333,353.288 C170.02933,353.288 169.357337,353.192001 168.717333,353 C168.07733,352.807999 167.517336,352.512002 167.037333,352.112 C166.557331,351.711998 166.173335,351.208003 165.885333,350.6 C165.597332,349.991997 165.453333,349.288004 165.453333,348.488 L165.453333,330.584 L161.997333,330.584 L161.997333,327.992 L165.453333,327.992 L165.453333,319.544 L168.717333,319.544 L168.717333,327.992 L174.477333,327.992 L174.477333,330.584 L168.717333,330.584 L168.717333,347.576 C168.781334,348.504005 169.10933,349.183998 169.701333,349.616 C170.293336,350.048002 170.97333,350.264 171.741333,350.264 C172.669338,350.264 173.48533,350.112002 174.189333,349.808 C174.893337,349.503998 175.341332,349.288001 175.533333,349.16 L176.397333,351.8 Z" id="art" fill="#4CAF50"></path>
        </g>
    </g>
</svg>